<svg width="144" height="145" viewBox="0 0 144 145" fill="none" xmlns="http://www.w3.org/2000/svg">
<path d="M58.5 23H31.5C26.5294 23 22.5 27.0294 22.5 32V59C22.5 63.9706 26.5294 68 31.5 68H58.5C63.4706 68 67.5 63.9706 67.5 59V32C67.5 27.0294 63.4706 23 58.5 23Z" fill="#2D62ED"/>
<path d="M58.5 77H31.5C26.5294 77 22.5 81.0294 22.5 86V113C22.5 117.971 26.5294 122 31.5 122H58.5C63.4706 122 67.5 117.971 67.5 113V86C67.5 81.0294 63.4706 77 58.5 77Z" fill="#2D62ED"/>
<path d="M112.5 23H85.5C80.5294 23 76.5 27.0294 76.5 32V59C76.5 63.9706 80.5294 68 85.5 68H112.5C117.471 68 121.5 63.9706 121.5 59V32C121.5 27.0294 117.471 23 112.5 23Z" fill="#2D62ED"/>
<path d="M81 104C82.1935 104 83.3381 103.526 84.182 102.682C85.0259 101.838 85.5 100.693 85.5 99.5V81.5C85.5 80.3065 85.0259 79.1619 84.182 78.318C83.3381 77.4741 82.1935 77 81 77C79.8065 77 78.6619 77.4741 77.818 78.318C76.9741 79.1619 76.5 80.3065 76.5 81.5V99.5C76.5 100.693 76.9741 101.838 77.818 102.682C78.6619 103.526 79.8065 104 81 104Z" fill="#2D62ED"/>
<path d="M117 86H103.5V81.5C103.5 80.3065 103.026 79.1619 102.182 78.318C101.338 77.4741 100.193 77 99 77C97.8065 77 96.6619 77.4741 95.818 78.318C94.9741 79.1619 94.5 80.3065 94.5 81.5V113H81C79.8065 113 78.6619 113.474 77.818 114.318C76.9741 115.162 76.5 116.307 76.5 117.5C76.5 118.693 76.9741 119.838 77.818 120.682C78.6619 121.526 79.8065 122 81 122H99C100.193 122 101.338 121.526 102.182 120.682C103.026 119.838 103.5 118.693 103.5 117.5V95H117C118.193 95 119.338 94.5259 120.182 93.682C121.026 92.8381 121.5 91.6935 121.5 90.5C121.5 89.3065 121.026 88.1619 120.182 87.318C119.338 86.4741 118.193 86 117 86Z" fill="#2D62ED"/>
<path d="M117 104C115.807 104 114.662 104.474 113.818 105.318C112.974 106.162 112.5 107.307 112.5 108.5V117.5C112.5 118.693 112.974 119.838 113.818 120.682C114.662 121.526 115.807 122 117 122C118.193 122 119.338 121.526 120.182 120.682C121.026 119.838 121.5 118.693 121.5 117.5V108.5C121.5 107.307 121.026 106.162 120.182 105.318C119.338 104.474 118.193 104 117 104Z" fill="#2D62ED"/>
</svg>
