<svg width="192" height="64" viewBox="0 0 192 64" fill="none" xmlns="http://www.w3.org/2000/svg">
<path fill-rule="evenodd" clip-rule="evenodd" d="M32.9213 9.77413C32.3331 9.92401 29.4017 10.6246 26.407 11.3315C15.2421 13.9665 15.26 13.9616 14.8365 14.5039C14.4157 15.043 14.3311 15.9302 14.6445 16.5203C14.8631 16.9315 24.3645 23.7092 25.1608 24.0217C25.6438 24.2114 29.3519 23.431 35.9965 21.7414L37.6684 21.3162L37.6116 17.4057C37.5305 11.8356 37.2725 10.6442 35.9745 9.84702C35.2593 9.40757 34.4385 9.38797 32.9213 9.77413ZM39.5719 11.2318C39.3392 11.4502 39.0907 11.8615 39.0201 12.1456C38.904 12.6113 39.086 20.8333 39.2151 20.9636C39.2449 20.9934 40.3128 20.7614 41.5887 20.4481C42.8643 20.1346 45.3082 19.5582 47.0194 19.1672C50.5831 18.3529 51.0575 18.1882 50.971 17.7953C50.9368 17.6392 48.7686 16.0091 46.153 14.173C42.1396 11.3554 41.288 10.8345 40.6963 10.8345C40.2607 10.8345 39.8349 10.9849 39.5719 11.2318ZM11.2301 18.1537C10.9042 18.3018 10.4756 18.6721 10.2776 18.9766C9.93072 19.51 9.92663 19.9119 10.1672 30.1213C10.3218 36.6839 10.4993 40.9662 10.6337 41.3794C10.9349 42.3059 11.6178 42.7469 13.1464 43.0022C14.3622 43.2052 14.6276 43.1773 16.8343 42.6164C18.142 42.2839 20.0434 41.8178 21.0595 41.5808C22.0755 41.3437 23.1164 41.0694 23.3727 40.9713L23.8387 40.7928L23.7006 38.3036C23.6247 36.9345 23.4945 33.5498 23.411 30.7818C23.286 26.6361 23.2032 25.663 22.9414 25.2605C22.444 24.4957 13.211 18.0763 12.4587 17.9723C12.109 17.9239 11.5562 18.0056 11.2301 18.1537ZM43.9081 21.7451C41.4483 22.3372 39.3779 22.8797 39.3073 22.9506C39.2369 23.0215 39.2818 26.7442 39.4076 31.2234C39.6093 38.4182 39.6758 39.4286 39.9778 39.8929C40.1658 40.1821 40.3832 40.4188 40.461 40.4188C40.5388 40.419 40.8649 40.6494 41.1857 40.9307C41.5066 41.212 42.7754 42.1239 44.0054 42.9567C45.2353 43.7896 47.196 45.1463 48.3624 45.9714C50.1241 47.2178 50.6111 47.4717 51.2393 47.4717C51.7832 47.4717 52.13 47.3365 52.473 46.9907C52.8913 46.5695 52.9543 46.3205 52.9811 44.9825C52.9978 44.1426 53.0048 43.3284 52.9965 43.1732C52.9881 43.0182 52.929 41.0345 52.865 38.765C52.3606 20.859 52.4563 21.7753 51.0089 20.9955C49.9767 20.4395 48.8294 20.5606 43.9081 21.7451ZM32.8241 24.3685C30.6851 24.8951 28.5667 25.4261 28.1167 25.5485C27.0968 25.8256 25.8484 26.8832 25.2823 27.9495C24.8665 28.7326 24.8531 28.9301 24.9017 33.5613C24.9533 38.4631 25.0822 40.675 25.308 40.5355C25.3778 40.4926 25.7848 40.4027 26.2126 40.3361C26.6404 40.2693 27.2564 40.1276 27.5816 40.021C27.9069 39.9147 28.7382 39.7027 29.4289 39.55C30.1198 39.3972 31.5601 39.08 32.6297 38.8447C35.4569 38.2229 36.7482 37.3365 37.6142 35.4226C38.0147 34.5372 38.0731 32.3529 37.8495 26.6375L37.7217 23.3734L37.2175 23.3922C36.9402 23.4026 34.9631 23.8419 32.8241 24.3685ZM34.7687 40.3012C34.2339 40.4438 32.3963 40.8884 30.6851 41.2892C28.9739 41.6901 27.0186 42.1652 26.3401 42.3449L25.1065 42.6717L25.2383 47.1778C25.3109 49.6562 25.4581 52.0314 25.5656 52.456C25.6733 52.8803 26.051 53.5196 26.4051 53.8764C27.2553 54.733 27.7451 54.7218 31.8699 53.7518C43.2604 51.0733 45.2326 50.5851 45.7531 50.3138C46.8835 49.7248 47.2866 47.9913 46.5209 47.0105C46.3003 46.728 44.747 45.519 43.0693 44.3242C41.3917 43.1293 39.41 41.7048 38.6658 41.1586C37.1397 40.0385 36.3809 39.8715 34.7687 40.3012ZM22.4207 43.2596C11.4294 45.8699 11.3366 45.8985 11.3366 46.6829C11.3366 46.9541 12.6817 48.0085 16.1119 50.4262C20.2179 53.3204 20.9932 53.7949 21.6444 53.8119C22.1305 53.8249 22.5965 53.6867 22.9459 53.4262C23.9656 52.6656 24.0071 52.3956 23.8583 47.4749C23.7834 44.9947 23.6699 42.9746 23.6061 42.9855C23.5423 42.9967 23.0089 43.1199 22.4207 43.2596Z" fill="#2D62ED"/>
<path d="M66.16 44C65.8133 44 65.64 43.8267 65.64 43.48V18.32C65.64 17.9733 65.8133 17.8 66.16 17.8H74.88C79.0667 17.8 82.1733 18.7733 84.2 20.72C86.2267 22.64 87.24 25.4933 87.24 29.28V31.96C87.24 35.96 86.2267 38.9733 84.2 41C82.2 43 79.0933 44 74.88 44H66.16ZM71.36 39.12H74.52C76.9467 39.12 78.72 38.5067 79.84 37.28C80.9867 36.0533 81.56 34.24 81.56 31.84V29.4C81.56 27.1867 80.9867 25.52 79.84 24.4C78.72 23.2533 76.9467 22.68 74.52 22.68H71.36V39.12ZM101.292 44.48C97.6919 44.48 94.9585 43.6133 93.0919 41.88C91.2519 40.1467 90.3319 37.6267 90.3319 34.32V27.48C90.3319 24.1467 91.2519 21.6267 93.0919 19.92C94.9585 18.1867 97.6919 17.32 101.292 17.32C104.919 17.32 107.652 18.1867 109.492 19.92C111.359 21.6267 112.292 24.1467 112.292 27.48V34.32C112.292 37.6267 111.359 40.1467 109.492 41.88C107.652 43.6133 104.919 44.48 101.292 44.48ZM101.292 39.52C103.079 39.52 104.399 39.0533 105.252 38.12C106.132 37.16 106.572 35.7867 106.572 34V27.8C106.572 26.0133 106.132 24.6533 105.252 23.72C104.399 22.76 103.079 22.28 101.292 22.28C99.5585 22.28 98.2519 22.76 97.3719 23.72C96.4919 24.6533 96.0519 26.0133 96.0519 27.8V34C96.0519 35.7867 96.4919 37.16 97.3719 38.12C98.2519 39.0533 99.5585 39.52 101.292 39.52ZM116.621 44C116.274 44 116.101 43.8267 116.101 43.48V18.32C116.101 17.9733 116.274 17.8 116.621 17.8H125.421C129.021 17.8 131.634 18.4933 133.261 19.88C134.888 21.2667 135.701 23.28 135.701 25.92C135.701 27.7333 135.301 29.2667 134.501 30.52C133.701 31.7733 132.474 32.6533 130.821 33.16V33.2L137.141 43.4C137.248 43.56 137.261 43.7067 137.181 43.84C137.128 43.9467 136.994 44 136.781 44H131.501C131.234 44 131.021 43.88 130.861 43.64L125.141 34H121.821V43.48C121.821 43.8267 121.648 44 121.301 44H116.621ZM121.821 29.52H125.341C126.941 29.52 128.114 29.24 128.861 28.68C129.608 28.12 129.981 27.2267 129.981 26C129.981 24.8 129.634 23.9467 128.941 23.44C128.274 22.9067 127.128 22.64 125.501 22.64H121.821V29.52ZM139.827 44C139.481 44 139.308 43.8267 139.308 43.48L139.827 18.32C139.827 17.9733 140.001 17.8 140.348 17.8H146.108C146.374 17.8 146.561 17.9333 146.668 18.2L153.148 32.04L159.548 18.2C159.681 17.9333 159.881 17.8 160.148 17.8H165.868C166.188 17.8 166.348 17.9733 166.348 18.32L166.908 43.48C166.908 43.8267 166.734 44 166.388 44H161.828C161.481 44 161.308 43.8267 161.308 43.48L161.068 32.56C161.041 31.4667 161.041 30.3467 161.068 29.2C161.121 28.0267 161.174 26.8933 161.228 25.8H161.108C160.654 26.8667 160.174 27.96 159.668 29.08C159.161 30.2 158.641 31.28 158.108 32.32L153.788 41.08C153.681 41.2933 153.481 41.4 153.188 41.4H152.988C152.721 41.4 152.534 41.2933 152.428 41.08L148.068 32.24C147.561 31.2 147.054 30.1333 146.548 29.04C146.041 27.92 145.574 26.84 145.148 25.8H145.028C145.081 26.8933 145.121 28.0133 145.148 29.16C145.174 30.3067 145.174 31.4133 145.148 32.48L144.908 43.48C144.908 43.8267 144.734 44 144.388 44H139.827ZM177.303 44C176.957 44 176.783 43.8267 176.783 43.48V34.96L168.263 18.4C168.183 18.24 168.17 18.1067 168.223 18C168.303 17.8667 168.437 17.8 168.623 17.8H173.903C174.197 17.8 174.397 17.92 174.503 18.16L177.543 24.76C177.917 25.6133 178.277 26.4667 178.623 27.32C178.997 28.1733 179.343 29.0133 179.663 29.84H179.703C180.05 28.9867 180.397 28.1467 180.743 27.32C181.09 26.4933 181.463 25.64 181.863 24.76L184.863 18.16C184.97 17.92 185.17 17.8 185.463 17.8H190.663C190.85 17.8 190.97 17.8667 191.023 18C191.103 18.1067 191.103 18.24 191.023 18.4L182.503 34.96V43.48C182.503 43.8267 182.33 44 181.983 44H177.303Z" fill="#2D62ED"/>
</svg>
