<svg width="64" height="64" viewBox="0 0 64 64" fill="none" xmlns="http://www.w3.org/2000/svg">
<path fill-rule="evenodd" clip-rule="evenodd" d="M32.9213 9.77413C32.3331 9.92401 29.4017 10.6246 26.407 11.3315C15.2421 13.9665 15.26 13.9616 14.8365 14.5039C14.4157 15.043 14.3311 15.9302 14.6445 16.5203C14.8631 16.9315 24.3645 23.7092 25.1608 24.0217C25.6438 24.2114 29.3519 23.431 35.9965 21.7414L37.6684 21.3162L37.6116 17.4057C37.5305 11.8356 37.2725 10.6442 35.9745 9.84702C35.2593 9.40757 34.4385 9.38797 32.9213 9.77413ZM39.5719 11.2318C39.3392 11.4502 39.0907 11.8615 39.0201 12.1456C38.904 12.6113 39.086 20.8333 39.2151 20.9636C39.2449 20.9934 40.3128 20.7614 41.5887 20.4481C42.8643 20.1346 45.3082 19.5582 47.0194 19.1672C50.5831 18.3529 51.0575 18.1882 50.971 17.7953C50.9368 17.6392 48.7686 16.0091 46.153 14.173C42.1396 11.3554 41.288 10.8345 40.6963 10.8345C40.2607 10.8345 39.8349 10.9849 39.5719 11.2318ZM11.2301 18.1537C10.9042 18.3018 10.4756 18.6721 10.2776 18.9766C9.93072 19.51 9.92663 19.9119 10.1672 30.1213C10.3218 36.6839 10.4993 40.9662 10.6337 41.3794C10.9349 42.3059 11.6178 42.7469 13.1464 43.0022C14.3622 43.2052 14.6276 43.1773 16.8343 42.6164C18.142 42.2839 20.0434 41.8178 21.0595 41.5808C22.0755 41.3437 23.1164 41.0694 23.3727 40.9713L23.8387 40.7928L23.7006 38.3036C23.6247 36.9345 23.4945 33.5498 23.411 30.7818C23.286 26.6361 23.2032 25.663 22.9414 25.2605C22.444 24.4957 13.211 18.0763 12.4587 17.9723C12.109 17.9239 11.5562 18.0056 11.2301 18.1537ZM43.9081 21.7451C41.4483 22.3372 39.3779 22.8797 39.3073 22.9506C39.2369 23.0215 39.2818 26.7442 39.4076 31.2234C39.6093 38.4182 39.6758 39.4286 39.9778 39.8929C40.1658 40.1821 40.3832 40.4188 40.461 40.4188C40.5388 40.419 40.8649 40.6494 41.1857 40.9307C41.5066 41.212 42.7754 42.1239 44.0054 42.9567C45.2353 43.7896 47.196 45.1463 48.3624 45.9714C50.1241 47.2178 50.6111 47.4717 51.2393 47.4717C51.7832 47.4717 52.13 47.3365 52.473 46.9907C52.8913 46.5695 52.9543 46.3205 52.9811 44.9825C52.9978 44.1426 53.0048 43.3284 52.9965 43.1732C52.9881 43.0182 52.929 41.0345 52.865 38.765C52.3606 20.859 52.4563 21.7753 51.0089 20.9955C49.9767 20.4395 48.8294 20.5606 43.9081 21.7451ZM32.8241 24.3685C30.6851 24.8951 28.5667 25.4261 28.1167 25.5485C27.0968 25.8256 25.8484 26.8832 25.2823 27.9495C24.8665 28.7326 24.8531 28.9301 24.9017 33.5613C24.9533 38.4631 25.0822 40.675 25.308 40.5355C25.3778 40.4926 25.7848 40.4027 26.2126 40.3361C26.6404 40.2693 27.2564 40.1276 27.5816 40.021C27.9069 39.9147 28.7382 39.7027 29.4289 39.55C30.1198 39.3972 31.5601 39.08 32.6297 38.8447C35.4569 38.2229 36.7482 37.3365 37.6142 35.4226C38.0147 34.5372 38.0731 32.3529 37.8495 26.6375L37.7217 23.3734L37.2175 23.3922C36.9402 23.4026 34.9631 23.8419 32.8241 24.3685ZM34.7687 40.3012C34.2339 40.4438 32.3963 40.8884 30.6851 41.2892C28.9739 41.6901 27.0186 42.1652 26.3401 42.3449L25.1065 42.6717L25.2383 47.1778C25.3109 49.6562 25.4581 52.0314 25.5656 52.456C25.6733 52.8803 26.051 53.5196 26.4051 53.8764C27.2553 54.733 27.7451 54.7218 31.8699 53.7518C43.2604 51.0733 45.2326 50.5851 45.7531 50.3138C46.8835 49.7248 47.2866 47.9913 46.5209 47.0105C46.3003 46.728 44.747 45.519 43.0693 44.3242C41.3917 43.1293 39.41 41.7048 38.6658 41.1586C37.1397 40.0385 36.3809 39.8715 34.7687 40.3012ZM22.4207 43.2596C11.4294 45.8699 11.3366 45.8985 11.3366 46.6829C11.3366 46.9541 12.6817 48.0085 16.1119 50.4262C20.2179 53.3204 20.9932 53.7949 21.6444 53.8119C22.1305 53.8249 22.5965 53.6867 22.9459 53.4262C23.9656 52.6656 24.0071 52.3956 23.8583 47.4749C23.7834 44.9947 23.6699 42.9746 23.6061 42.9855C23.5423 42.9967 23.0089 43.1199 22.4207 43.2596Z" fill="#2D62ED"/>
</svg>
